<svg width="40" height="40" viewBox="0 0 40 40" fill="none" xmlns="http://www.w3.org/2000/svg">
    <path d="M35.4247 34.1473C35.1441 34.23 34.9205 34.2585 34.628 34.2585C32.228 34.2585 28.7027 25.8716 28.7027 23.0802C28.7027 22.052 28.9469 21.7092 29.2901 21.4155C26.3523 21.7581 22.8266 22.8356 21.6999 24.2066C21.4553 24.5496 21.3083 25.0882 21.3083 25.7735C21.3083 30.1319 25.9602 40.0228 29.2413 40.0228C30.759 40.0228 33.3191 37.5256 35.4247 34.1473" fill="#FF8700"/>
    <path d="M33.8928 21.1215C36.9287 21.1215 39.9652 21.6112 39.9652 23.325C39.9652 26.8018 37.7617 31.013 36.6353 31.013C34.6278 31.013 32.1304 25.431 32.1304 22.6397C32.1304 21.3666 32.6201 21.1215 33.8928 21.1215Z" fill="#FF8700"/>
    <path d="M20.8934 9.6986L11.5953 0.401608C11.0603 -0.133869 10.1919 -0.133869 9.65624 0.401608L7.72559 2.33245L10.1746 4.78142C10.7439 4.5892 11.3964 4.71808 11.8501 5.17178C12.306 5.6283 12.434 6.28643 12.2369 6.85766L14.5973 9.21804C15.1684 9.02125 15.8272 9.14839 16.2832 9.60518C16.9207 10.2425 16.9207 11.2752 16.2832 11.9127C15.6456 12.5503 14.6129 12.5503 13.975 11.9127C13.4956 11.4329 13.3771 10.7286 13.6199 10.138L11.4185 7.93673L11.4184 13.7294C11.5738 13.8064 11.7204 13.9091 11.85 14.038C12.4873 14.6753 12.4873 15.7078 11.85 16.3461C11.2125 16.9833 10.1793 16.9833 9.54248 16.3461C8.90508 15.7078 8.90508 14.6753 9.54248 14.038C9.70001 13.8808 9.88228 13.7618 10.0768 13.682V7.83544C9.88219 7.756 9.70013 7.63787 9.54237 7.47936C9.05957 6.99693 8.94329 6.28834 9.1909 5.69546L6.77669 3.28088L0.401734 9.65565C-0.133911 10.1915 -0.133911 11.0599 0.401734 11.5955L9.69931 20.8925C10.2346 21.4279 11.1027 21.4279 11.6387 20.8925L20.8933 11.6394C21.4288 11.1036 21.4288 10.235 20.8933 9.69938" fill="#F05133"/>
    <rect x="15.3271" y="19.5327" width="9.34579" height="0.934572" rx="0.467286" fill="#323232"/>
    <rect x="19.5327" y="24.6729" width="9.34579" height="0.934572" rx="0.467286" transform="rotate(-90 19.5327 24.6729)" fill="#323232"/>
</svg>